#!OML:ASF F:\VICON\USERDATA\INSTALL\rory3\rory3.ASF
:FULLY-SPECIFIED
:DEGREES
21
root 0.7665580338237472 17.950263530112178 -2.901698816501968 -2.3199553158440898 0.5075758967852906 3.291377868233906
lfemur 8.466835536558703 -0.6885379125765203 -28.96210021312271
ltibia 15.037869600224088
lfoot -18.071047402186736 1.4837455844895784
ltoes 2.92779264973309
rfemur -25.614649072600272 2.8196250613955023 17.448833552434035
rtibia 26.416000828080506
rfoot -8.316958481161606 -15.192455371352999
rtoes -2.974027987694112
lowerback nan -1.1267099373734424 -4.9124947305601
upperback 0.768178509343307 -1.865897788081176 0.4529644045610588
thorax -4.568118631790115 -0.7792971107211139 3.097299681919173
lowerneck -16.105880866430454 -2.768525251886639 -1.868937752982685
upperneck 21.709247044504835 -3.2356803360937754 -0.5828720860645189
head 9.553444805249638 -1.7385937006417165 -0.26775444187083597
lclavicle 8.269751257989518e-16 -2.4475205706449386e-15
lhumerus -23.56636275218629 -2.6812616400536706 80.29958427378581
lradius 29.35720969343819
lwrist 7.647239697935104
lhand -28.443894505136196 23.724911624451074
lfingers nan
lthumb -1.8820425877473619 53.42374532102843
rclavicle 7.526330392275257e-16 -2.4709144016480146e-15
rhumerus -31.28395258804367 -23.3534486827967 -76.47805856567791
rradius 24.310838749706505
rwrist 4.32910990357264
rhand -17.618970069563122 nan
rfingers nan
rthumb 8.717007361085745 -6.6695010946124045
22
root 0.7195069098619868 17.932677702588844 -2.0892523843068513 -1.3014624850189718 1.6242390490159782 3.7912898929002194
lfemur 11.337549427653057 0.39778302099224483 -28.893482829494687
ltibia 11.755968654021395
lfoot -19.215162683146556 2.0490870760194078
ltoes -0.5388832820647806
rfemur -24.95268307538859 7.508047735482623 14.23295111603641
rtibia 14.716466291586237
rfoot -11.323475119657417 -19.270957000829746
rtoes -4.411544480789464
lowerback nan -1.3702591685385 -5.389234383948658
upperback 0.6111687493972395 -2.138341557968106 0.5931156175889448
thorax -4.4461818898851835 -0.9202954085482965 3.5672884471251116
lowerneck -16.17066390011065 -2.8527305460594223 -1.9086107581636709
upperneck 21.427164485745102 -3.3753425360638 -0.4485379662801956
head 9.468398599509866 -1.7699246597886138 -0.2739948460634945
lclavicle 6.776827765558752e-16 -8.903548142836428e-16
lhumerus -22.27728994792877 -3.2119766461453434 79.97234448122381
lradius 30.281511826974743
lwrist 7.967685487275674
lhand -27.645227216428452 24.561937721524114
lfingers nan
lthumb -1.0137408884030814 54.61151041451577
rclavicle 8.32695577568264e-16 -8.437908595625948e-16
rhumerus -31.40654116840691 -23.487429982263833 -76.27680094526876
rradius 23.890809890965258
rwrist 4.899865522377286
rhand -17.853785343656302 nan
rfingers nan
rthumb 8.52053043927629 -7.270665191586123
23
root 0.6553079548963097 17.912547872527927 -1.241654227661579 -0.6276496631852813 2.4754287274365754 3.8399201275837447
lfemur 12.710624543555634 0.21332829470908776 -28.32755897541504
ltibia 12.630368705395849
lfoot -18.252022159070133 2.0293253166978005
ltoes -2.9890097673802343
rfemur -24.769918900484818 8.57501482449794 13.554135976714717
rtibia 12.718874864375127
rfoot -12.669914390178592 -18.004755716109557
rtoes -7.170764094124394
lowerback nan -1.4873441231312674 -5.492632951034564
upperback 0.5148318568346544 -2.363032656058431 0.6588495044684538
thorax -4.3898462612891676 -1.017753389335951 3.899444895764378
lowerneck -16.092266075752374 -2.924143680504886 -1.8396642159323637
upperneck 21.22637724288414 -3.5255915614843008 -0.358756233967668
head 9.395406118867951 -1.814402158565001 -0.2771252188299483
lclavicle 2.605677293490232e-15 -9.302725752031738e-16
lhumerus -21.338017409793004 -3.11381409418051 79.72639261676926
lradius 31.052702412777208
lwrist 8.34486660857456
lhand -27.83914691292117 24.162412914987147
lfingers nan
lthumb -1.2881245697617483 54.01966323975307
rclavicle 2.3108284343449792e-15 -1.1438205149809015e-15
rhumerus -31.92185874605544 -23.791811391250658 -75.9979290008969
rradius 23.707230064358495
rwrist 5.450863878765659
rhand -18.20743959182047 nan
rfingers nan
rthumb 8.13106868119211 -7.8283970720120655
24
root 0.5913654112563668 17.863858666750275 -0.0034006697988875345 -0.27142893539620516 2.8769976984457677 4.063900959839747
lfemur 14.047637732557183 -0.4752476371575278 -27.895215636266954
ltibia 15.782492914744555
lfoot -16.2545814323967 -0.30742976775681896
ltoes -8.115919750323975
rfemur -26.19895933159056 3.5929779736113883 16.341730521869955
rtibia 19.932310302325018
rfoot -9.11428259798757 -12.98094555858611
rtoes -8.9897960548297
lowerback nan -1.4888566799906706 -5.709735406546637
upperback 0.47974641980881455 -2.432312296299477 0.7294039214697416
thorax -4.34136638796133 -1.0457387650884384 3.953459630354887
lowerneck -16.23769761910353 -3.0167435796508975 -1.9012979595197814
upperneck 21.229840379810017 -3.674273524911742 -0.30971117583096464
head 9.448287032580813 -1.8675434992608606 -0.31730321012736884
lclavicle 6.40825838700339e-16 1.384692018545189e-16
lhumerus -20.6672789983268 -2.425198255052548 79.60974012407853
lradius 31.237115876568147
lwrist 8.93220587810487
lhand -28.73055156551768 22.82546387484323
lfingers nan
lthumb -2.1814825560228623 52.46315916315449
rclavicle 8.20995414553171e-17 -4.3267180914649875e-16
rhumerus -32.30115612980504 -24.38720764915341 -75.70639012912791
rradius 23.73429013904355
rwrist 5.202834324784692
rhand -18.382169993612347 nan
rfingers nan
rthumb 8.031189561809812 -7.378662723381302
25
root 0.5290985417068702 17.82745161567889 1.0002917334145671 -0.25974521379734883 2.809866128846608 3.807145622523814
lfemur 15.41659246988222 -2.105589155313273 -27.28271411388962
ltibia 18.770508796385897
lfoot -12.712059885140198 -2.4184320960261343
ltoes -11.538953783189994
rfemur -25.341569760159516 3.535950909979544 17.911756955011256
rtibia 24.143045659577435
rfoot -6.013391755663459 -10.87347015222798
rtoes -8.961998969015143
lowerback nan -1.47307736037315 -5.42022591769413
upperback 0.48499397757176654 -2.347439773447479 0.8985622997813499
thorax -4.344855705357302 -1.0316494006665988 3.8070481572342008
lowerneck -16.42263135230828 -3.011049145877167 -1.9432582471178887
upperneck 21.302899147658096 -3.7154988339622164 -0.07072018060395202
head 9.485288053473841 -1.8494352792722517 -0.2638393054856609
lclavicle -4.0943827773778355e-16 5.579300756769757e-16
lhumerus -20.791719365893478 -1.7922818662986622 79.61930676598081
lradius 31.142238696545423
lwrist 8.977680038929831
lhand -28.412939682389982 22.266109751499982
lfingers nan
lthumb -1.7847491626907581 52.12422628048705
rclavicle -3.5618084838078563e-16 6.668443507168837e-16
rhumerus -32.84778749920008 -25.37160851561918 -75.10101235617203
rradius 23.408531979942595
rwrist 5.36103874733403
rhand -18.369722352260293 nan
rfingers nan
rthumb 8.032074064207926 -7.250319751725617
26
root 0.45037909742464777 17.85995623777685 1.4400528498000718 -0.5479254002033791 2.574287294616951 2.538914497709313
lfemur 16.11930945472971 -4.67642364319121 -25.912481286894717
ltibia 22.575584864226677
lfoot -8.494795865552579 -5.1658139956663875
ltoes -14.28852179639536
rfemur -24.579657522770717 3.8633725612335295 19.401226248732744
rtibia 26.560522522665547
rfoot -3.469342815754727 -6.272656508194591
rtoes -4.395645202909057
lowerback nan -1.5151470038489638 -4.113600760187822
upperback 0.4270754400989861 -2.2370396054232318 1.2588870316535798
thorax -4.392440734298941 -1.000067767836641 3.6465302577575622
lowerneck -16.42803064264311 -3.000924552755583 -2.019249059704584
upperneck 21.333437588343326 -3.6959779025556925 0.004325449640132151
head 9.52126688806712 -1.8478880861259621 -0.2172603923797582
lclavicle 1.5089015651050891e-15 1.7961562994878789e-16
lhumerus -21.16659515680336 -1.1204603832438345 79.79190260062838
lradius 30.845121634339506
lwrist 9.114916785288464
lhand -29.387842200504387 21.19156166424338
lfingers nan
lthumb -2.8890381399994345 50.69034885524121
rclavicle 8.464616497799901e-16 -3.5442669732589433e-16
rhumerus -33.30190569228144 -26.246637094475183 -74.57457601355766
rradius 22.802621706548354
rwrist 6.214224717371069
rhand -18.42000523796695 nan
rfingers nan
rthumb 7.96922074349661 -7.130688745741186
27
root 0.379589252685225 17.95165012919769 1.6896710221148208 -0.8840311579183624 2.3855053176925787 0.45533254212812446
lfemur 14.629084728721823 -5.697377497235843 -23.49434828272545
ltibia 29.168533438993904
lfoot -3.586555550245483 -8.84977727909462
ltoes -16.73530570046084
rfemur -22.38788172683988 3.9967775487219805 22.213261512574086
rtibia 27.618022270433286
rfoot -4.2007917143045574 -3.3806770653215636
rtoes 2.5652770820745054
lowerback nan -1.55096931963282 -2.0119556124975935
upperback 0.2850865699261144 -2.0580937300272177 1.6964653061752633
thorax -4.57328746272647 -0.9452315175796743 3.1879896138955814
lowerneck -16.622735333879355 -2.856149515520873 -1.9909218835359976
upperneck 21.535405765830305 -3.483815943098435 0.01081195402017665
head 9.558783230709018 -1.7760091737336268 -0.1576254733936625
lclavicle 1.153224679566361e-16 -9.52088588861274e-16
lhumerus -22.146297788606066 -0.3348326254652205 80.05889319119625
lradius 30.360089064576588
lwrist 8.856701252941832
lhand -29.447246213544346 19.930723306945573
lfingers nan
lthumb -2.776646821533536 49.81143038645872
rclavicle -3.1729715013718047e-16 -1.1961332534669447e-15
rhumerus -33.85449012177251 -27.271863465096033 -73.80747424094504
rradius 22.014156088378996
rwrist 7.558379002457625
rhand -18.410444572338722 nan
rfingers nan
rthumb 7.926265663280568 -7.323491317216437
28
root 0.31363360123135886 18.025799216443282 2.447021809995526 -1.2448133235429277 1.947524778926049 -0.6264459040900066
lfemur 10.746487479264472 -4.213095986734218 -21.37379307810315
ltibia 37.595042483511286
lfoot 3.2866233795248823 -13.83928459217205
ltoes -15.719322841154911
rfemur -20.00076174870486 4.147948131273153 24.279631373491945
rtibia 28.645435669913482
rfoot -5.624380317127571 -3.1718145266126814
rtoes 6.783749058600882
lowerback nan -1.4516970241846958 -0.6409556808484447
upperback 0.14005701253390343 -1.7713259660697995 2.046422699541199
thorax -4.862456087203523 -0.8562043279950172 2.7048682822065526
lowerneck -16.522877626169123 -2.749344023930792 -1.7793017074119142
upperneck 21.70289796592799 -3.325791422089039 -0.23560431168371043
head 9.576945440358482 -1.7413674354421638 -0.21119384785291412
lclavicle -2.7351119057157103e-15 -2.208013694492253e-15
lhumerus -23.407423323904823 0.42874488447313563 80.44466057012119
lradius 29.923069480879036
lwrist 8.558054142250418
lhand -29.15238467881566 20.336009333391264
lfingers nan
lthumb -2.392174953895786 50.530039623594114
rclavicle -3.799985146361196e-15 -2.8960212262757094e-15
rhumerus -33.927317303513796 -27.552949341441334 -73.42321546630029
rradius 21.44980439471251
rwrist 8.55756602239159
rhand -18.336265915420338 nan
rfingers nan
rthumb 7.884469378565964 -7.969362415833219
